<?xml version="1.0" encoding="utf-8"?>
<!-- Generator: Adobe Illustrator 21.1.0, SVG Export Plug-In . SVG Version: 6.00 Build 0)  -->
<svg version="1.1" id="圖層_1" xmlns="http://www.w3.org/2000/svg" xmlns:xlink="http://www.w3.org/1999/xlink" x="0px" y="0px"
	 viewBox="0 0 94.1 128.6" style="enable-background:new 0 0 94.1 128.6;" xml:space="preserve">
<style type="text/css">
	.st0{fill:none;stroke:#A5A493;stroke-miterlimit:10;}
	.st1{fill:#A5A493;}
</style>
<g>
	<path class="st1" d="M47.1,0c18.3,0.8,32.2,8.8,41.3,24.7c3.5,6.1,5.2,12.9,5.7,19.9c0.5,7.1-1.6,13.6-4.3,19.9
		c-6.2,14.7-14.8,28-24.1,40.8c-5.3,7.4-11,14.6-16.5,21.8c-1.4,1.9-2.8,1.9-4.3,0.1c-11.1-13.9-21.7-28.2-30.8-43.5
		C9.4,75.7,5.1,67.4,2,58.5c-3-8.9-2.5-17.7,0.4-26.4c3.3-9.9,9.4-17.8,17.9-23.7c6.1-4.2,12.8-6.8,20.1-7.8
		C42.7,0.3,44.9,0.2,47.1,0z M47,123c0.3-0.3,0.5-0.5,0.7-0.7c9.7-12.4,19-25,27.2-38.5c5.1-8.3,9.7-16.8,13-26.1
		c2.3-6.7,2.5-13.4,0.8-20.2c-2.5-10.4-8.1-18.7-16.7-25c-6.8-4.9-14.4-7.5-22.7-8c-8.2-0.4-16,1.3-23.1,5.4
		C16.5,15.3,9.8,23.4,6.4,34c-2.3,7.1-3,14.3-0.8,21.6c2.5,8.1,6.3,15.6,10.5,23c8,13.9,17.4,26.9,27.1,39.6
		C44.4,119.7,45.7,121.3,47,123z"/>
	<g>
		<path class="st1" d="M47.1,68.5c-12.1,0-22-9.9-22-22c0-12.1,9.9-22,22-22c12.1,0,22,9.9,22,22C69.1,58.6,59.2,68.5,47.1,68.5z
			 M47.1,28.2c-10,0-18.2,8.2-18.2,18.2c0,10,8.2,18.2,18.2,18.2c10,0,18.2-8.2,18.2-18.2C65.3,36.4,57.1,28.2,47.1,28.2z"/>
	</g>
</g>
</svg>
