<?xml version="1.0" encoding="utf-8"?>
<!-- Generator: Adobe Illustrator 21.1.0, SVG Export Plug-In . SVG Version: 6.00 Build 0)  -->
<svg version="1.1" id="圖層_1" xmlns="http://www.w3.org/2000/svg" xmlns:xlink="http://www.w3.org/1999/xlink" x="0px" y="0px"
	 viewBox="0 0 121.6 124" style="enable-background:new 0 0 121.6 124;" xml:space="preserve">
<style type="text/css">
	.st0{fill:none;stroke:#A5A493;stroke-miterlimit:10;}
	.st1{fill:#A5A493;}
</style>
<g>
	<path class="st1" d="M121.5,24.2c-0.1-11.5-7.4-20.7-18.5-23.5c-1-0.3-2-0.5-3-0.7C73.9,0,21,0.2,20.6,0.2C16.7,0.8,12.9,2,10,4.6
		C8.3,6,5.2,9.3,3.8,11.1C0.8,14.9,0,19.7,0,24.6C0,40.1,0,55.5,0,71c0,1.3,0.1,2.7,0.2,4C1.3,85.5,10,94.7,20.6,95.9
		c3.8,0.4,7.7,0.2,11.6,0.3c0.5,0,0.9,0,1.5,0c0,0.6,0,1.1,0,1.5c0,6.9,0,13.9,0,20.8c0,1.9,0.5,3.5,2.2,4.6
		c2.3,1.5,4.6,1.2,6.7-1.1c7.8-8.3,15.6-16.6,23.4-24.9c0.7-0.7,1.3-1,2.3-1c9.5,0,19,0,28.5,0c1.1,0,2.2,0,3.3-0.1
		c12.6-1.5,21.5-11.4,21.6-24C121.6,56.1,121.6,40.1,121.5,24.2z M117.9,71.7c0,1.7-0.2,3.5-0.6,5.2c-2.3,9.4-10.2,15.6-20,15.7
		c-9.9,0-19.9,0-29.8,0c-1.6,0-2.7,0.5-3.8,1.7c-7.9,8.4-15.8,16.8-23.7,25.2c-0.4,0.5-1.2,0.9-1.8,0.8c-0.9-0.1-0.9-1.1-0.9-1.9
		c0-7.4,0-14.9,0-22.3c0-2.5-1-3.5-3.5-3.5c-3.6,0-7.1,0-10.7,0c-2.6,0-5.1-0.6-7.5-1.8C7.7,86.8,3.7,80.4,3.7,71.6
		c-0.1-15.5,0-31.1,0-46.6c0-4.2,0.5-8.5,3.2-11.9c1.2-1.6,4-4.5,5.5-5.8c3.4-2.9,7.7-3.7,12.2-3.7c24.1,0,48.3,0,72.4,0
		c1.4,0,2.9,0.1,4.3,0.4c9.8,1.8,16.6,10.2,16.6,20.5C117.9,40.2,117.9,56,117.9,71.7z"/>
	<path class="st1" d="M81.2,25.6c-6.5-2.3-12.3-1-17.3,3.8c-1.1,1-2,2.1-3.3,3.4c-1.4-1.5-2.6-3-3.9-4.2c-5.5-5-14.1-5.4-20-1.1
		c-8.4,6.1-9.2,17.5-1.8,25c7.5,7.6,15.1,15.1,22.7,22.7c2.2,2.2,4.1,2.1,6.3,0c3.9-3.9,21.8-21.7,23.6-23.7
		C95.2,43.3,91.9,29.5,81.2,25.6z M84.9,49.1c-1.8,2-19.9,20-24.1,24.2c-3-3-5.9-5.9-8.7-8.7c-4.9-4.9-9.8-9.8-14.6-14.6
		c-3.2-3.2-4.4-7.1-3.6-11.5c0.9-4.5,3.5-7.8,7.9-9.3c4.8-1.7,9.1-0.8,13,2.5c1.1,1,2.2,2.2,3.3,3.2c1.8,1.7,3.9,1.7,5.7,0
		c1.2-1.1,2.3-2.3,3.5-3.4c3.8-3.4,9.3-4.2,13.9-2C88.4,33,90.4,43,84.9,49.1z"/>
</g>
</svg>
