<?xml version="1.0" encoding="utf-8"?>
<!-- Generator: Adobe Illustrator 21.1.0, SVG Export Plug-In . SVG Version: 6.00 Build 0)  -->
<svg version="1.1" id="圖層_1" xmlns="http://www.w3.org/2000/svg" xmlns:xlink="http://www.w3.org/1999/xlink" x="0px" y="0px"
	 viewBox="0 0 128.5 107" style="enable-background:new 0 0 128.5 107;" xml:space="preserve">
<style type="text/css">
	.st0{fill:none;stroke:#A5A493;stroke-miterlimit:10;}
	.st1{fill:#A5A493;}
</style>
<path class="st1" d="M0,14.3c0.6-1.1,1.6-1.6,2.9-1.5c2.5,0.1,5.1,0,7.8,0c0-0.9,0-1.8,0-2.7c0-2.5,0-4.9,0-7.4
	c0-2.1,0.8-2.9,2.9-2.7c15,0.9,29.5,3.9,43.5,9.7c2,0.8,4.1,1.7,6.1,2.5c0.6,0.2,1.4,0.2,2,0c6.3-2.3,12.5-4.9,18.9-6.9
	c8.9-2.9,18.2-4.3,27.6-5c1.1-0.1,2.2-0.2,3.4-0.3c1.8-0.1,2.6,0.7,2.7,2.5c0,3.1,0,6.3,0,9.4c0,0.2,0,0.5,0.1,0.9
	c2.2,0,4.4,0,6.5,0c3.9,0,4.1,0.2,4.1,4.1c0,28.9,0,57.9,0,86.8c0,2.7-0.6,3.3-3.3,3.3c-40.7,0-81.3,0-122,0c-1.4,0-2.6-0.1-3.2-1.6
	C0,75.1,0,44.7,0,14.3z M15.1,4.4c0,28.7,0,57.2,0,85.7c16.4,1,31.9,4.9,47,11.6c0-0.6,0-0.9,0-1.2c0-27.7,0-55.4,0-83
	c0-0.9-0.3-1.2-1.1-1.6C49.4,10.8,37.3,7,24.6,5.4C21.5,5,18.3,4.7,15.1,4.4z M113.4,90.1c0-28.6,0-57.1,0-85.6c-0.5,0-0.9,0-1.3,0
	c-5.3,0.7-10.7,1.2-16,2.2c-9.9,1.8-19.2,5.2-28.4,9.1c-1,0.4-1.3,0.9-1.3,1.9c0,27.5,0,54.9,0,82.4c0,0.4,0,0.9,0,1.6
	C81.5,95,97,91.1,113.4,90.1z M117.8,17.1c0,0.6,0,1.1,0,1.7c0,23.9,0,47.8,0,71.8c0,0.5,0,0.9,0,1.4c-0.1,1.3-0.7,2.1-2.1,2.2
	c-1.6,0.2-3.2,0.3-4.9,0.4c-11.8,0.9-23.2,3.5-34.3,7.6c-0.2,0.1-0.4,0.2-0.8,0.4c16.2,0,32.3,0,48.4,0c0-28.6,0-57,0-85.5
	C122,17.1,120,17.1,117.8,17.1z M52.6,102.7c-6.2-2.6-12.4-4.6-19-5.7c-6.6-1.1-13.2-1.8-19.9-2.7c-2.7-0.4-3.1-0.7-3.1-3.5
	c0-24,0-48,0-72c0-0.5,0-1.1,0-1.7c-2.2,0-4.3,0-6.4,0c0,28.5,0,57,0,85.5C20.5,102.7,36.5,102.7,52.6,102.7z"/>
</svg>
